<mxfile host="Electron" agent="Mozilla/5.0 (Macintosh; Intel Mac OS X 10_15_7) AppleWebKit/537.36 (KHTML, like Gecko) draw.io/24.7.17 Chrome/128.0.6613.36 Electron/32.0.1 Safari/537.36" version="24.7.17">
  <diagram name="Page-1" id="v291Cr82BWFTUBnK_NPK">
    <mxGraphModel dx="912" dy="1776" grid="1" gridSize="10" guides="1" tooltips="1" connect="1" arrows="1" fold="1" page="1" pageScale="1" pageWidth="850" pageHeight="1100" math="0" shadow="0">
      <root>
        <mxCell id="0" />
        <mxCell id="1" parent="0" />
        <mxCell id="mtID3ck88sSmsp8Z3kax-44" value="" style="rounded=0;whiteSpace=wrap;html=1;fillColor=none;dashed=1;movable=1;resizable=1;rotatable=1;deletable=1;editable=1;locked=0;connectable=1;" vertex="1" parent="1">
          <mxGeometry x="470" width="340" height="190" as="geometry" />
        </mxCell>
        <mxCell id="mtID3ck88sSmsp8Z3kax-14" value="" style="edgeStyle=orthogonalEdgeStyle;rounded=0;orthogonalLoop=1;jettySize=auto;html=1;" edge="1" parent="1" source="mtID3ck88sSmsp8Z3kax-1" target="mtID3ck88sSmsp8Z3kax-3">
          <mxGeometry relative="1" as="geometry" />
        </mxCell>
        <mxCell id="mtID3ck88sSmsp8Z3kax-31" value="" style="edgeStyle=orthogonalEdgeStyle;rounded=0;orthogonalLoop=1;jettySize=auto;html=1;startArrow=classic;startFill=1;" edge="1" parent="1" source="mtID3ck88sSmsp8Z3kax-1" target="mtID3ck88sSmsp8Z3kax-3">
          <mxGeometry relative="1" as="geometry" />
        </mxCell>
        <mxCell id="mtID3ck88sSmsp8Z3kax-1" value="proxyd" style="rounded=0;whiteSpace=wrap;html=1;fillColor=#ffe6cc;strokeColor=#d79b00;" vertex="1" parent="1">
          <mxGeometry x="280" y="200" width="520" height="60" as="geometry" />
        </mxCell>
        <mxCell id="mtID3ck88sSmsp8Z3kax-13" style="edgeStyle=orthogonalEdgeStyle;rounded=0;orthogonalLoop=1;jettySize=auto;html=1;entryX=0.5;entryY=1;entryDx=0;entryDy=0;startArrow=classic;startFill=1;" edge="1" parent="1" source="mtID3ck88sSmsp8Z3kax-2" target="mtID3ck88sSmsp8Z3kax-5">
          <mxGeometry relative="1" as="geometry" />
        </mxCell>
        <mxCell id="mtID3ck88sSmsp8Z3kax-2" value="op&lt;span style=&quot;background-color: initial;&quot;&gt;-node&lt;/span&gt;" style="rounded=0;whiteSpace=wrap;html=1;fillColor=#d5e8d4;strokeColor=#82b366;" vertex="1" parent="1">
          <mxGeometry x="280" y="100" width="120" height="60" as="geometry" />
        </mxCell>
        <mxCell id="mtID3ck88sSmsp8Z3kax-3" value="op&lt;span style=&quot;background-color: initial;&quot;&gt;-node&lt;/span&gt;" style="rounded=0;whiteSpace=wrap;html=1;fillColor=#fff2cc;strokeColor=#d6b656;" vertex="1" parent="1">
          <mxGeometry x="480" y="100" width="120" height="60" as="geometry" />
        </mxCell>
        <mxCell id="mtID3ck88sSmsp8Z3kax-4" value="op&lt;span style=&quot;background-color: initial;&quot;&gt;-node&lt;/span&gt;" style="rounded=0;whiteSpace=wrap;html=1;fillColor=#fff2cc;strokeColor=#d6b656;" vertex="1" parent="1">
          <mxGeometry x="680" y="100" width="120" height="60" as="geometry" />
        </mxCell>
        <mxCell id="mtID3ck88sSmsp8Z3kax-15" style="edgeStyle=orthogonalEdgeStyle;rounded=0;orthogonalLoop=1;jettySize=auto;html=1;entryX=0.539;entryY=0.996;entryDx=0;entryDy=0;entryPerimeter=0;" edge="1" parent="1" source="mtID3ck88sSmsp8Z3kax-5" target="mtID3ck88sSmsp8Z3kax-6">
          <mxGeometry relative="1" as="geometry">
            <Array as="points">
              <mxPoint x="340" y="-10" />
              <mxPoint x="415" y="-10" />
            </Array>
          </mxGeometry>
        </mxCell>
        <mxCell id="mtID3ck88sSmsp8Z3kax-16" style="edgeStyle=orthogonalEdgeStyle;rounded=0;orthogonalLoop=1;jettySize=auto;html=1;entryX=0.5;entryY=1;entryDx=0;entryDy=0;" edge="1" parent="1" source="mtID3ck88sSmsp8Z3kax-5" target="mtID3ck88sSmsp8Z3kax-7">
          <mxGeometry relative="1" as="geometry">
            <Array as="points">
              <mxPoint x="340" y="-10" />
              <mxPoint x="685" y="-10" />
            </Array>
          </mxGeometry>
        </mxCell>
        <mxCell id="mtID3ck88sSmsp8Z3kax-43" style="edgeStyle=orthogonalEdgeStyle;rounded=0;orthogonalLoop=1;jettySize=auto;html=1;entryX=0;entryY=0.5;entryDx=0;entryDy=0;startArrow=classic;startFill=1;" edge="1" parent="1" source="mtID3ck88sSmsp8Z3kax-5" target="mtID3ck88sSmsp8Z3kax-8">
          <mxGeometry relative="1" as="geometry">
            <Array as="points">
              <mxPoint x="260" y="30" />
              <mxPoint x="260" y="-170" />
            </Array>
          </mxGeometry>
        </mxCell>
        <mxCell id="mtID3ck88sSmsp8Z3kax-5" value="op-geth (sequencer) (archive mode)" style="rounded=0;whiteSpace=wrap;html=1;fillColor=#d5e8d4;strokeColor=#82b366;" vertex="1" parent="1">
          <mxGeometry x="280" width="120" height="60" as="geometry" />
        </mxCell>
        <mxCell id="mtID3ck88sSmsp8Z3kax-21" style="edgeStyle=orthogonalEdgeStyle;rounded=0;orthogonalLoop=1;jettySize=auto;html=1;entryX=0.25;entryY=1;entryDx=0;entryDy=0;" edge="1" parent="1" source="mtID3ck88sSmsp8Z3kax-6" target="mtID3ck88sSmsp8Z3kax-8">
          <mxGeometry relative="1" as="geometry">
            <Array as="points">
              <mxPoint x="410" y="-110" />
              <mxPoint x="410" y="-110" />
            </Array>
          </mxGeometry>
        </mxCell>
        <mxCell id="mtID3ck88sSmsp8Z3kax-6" value="op-batcher" style="rounded=0;whiteSpace=wrap;html=1;fillColor=#d5e8d4;strokeColor=#82b366;" vertex="1" parent="1">
          <mxGeometry x="280" y="-100" width="250" height="60" as="geometry" />
        </mxCell>
        <mxCell id="mtID3ck88sSmsp8Z3kax-7" value="op-proposer" style="rounded=0;whiteSpace=wrap;html=1;fillColor=#d5e8d4;strokeColor=#82b366;" vertex="1" parent="1">
          <mxGeometry x="570" y="-100" width="230" height="60" as="geometry" />
        </mxCell>
        <mxCell id="mtID3ck88sSmsp8Z3kax-8" value="L1" style="rounded=0;whiteSpace=wrap;html=1;fillColor=#e1d5e7;strokeColor=#9673a6;" vertex="1" parent="1">
          <mxGeometry x="280" y="-200" width="520" height="60" as="geometry" />
        </mxCell>
        <mxCell id="mtID3ck88sSmsp8Z3kax-9" value="" style="endArrow=classic;html=1;rounded=0;entryX=0.5;entryY=1;entryDx=0;entryDy=0;startArrow=classic;startFill=1;" edge="1" parent="1" target="mtID3ck88sSmsp8Z3kax-2">
          <mxGeometry width="50" height="50" relative="1" as="geometry">
            <mxPoint x="340" y="200" as="sourcePoint" />
            <mxPoint x="640" y="30" as="targetPoint" />
          </mxGeometry>
        </mxCell>
        <mxCell id="mtID3ck88sSmsp8Z3kax-11" value="" style="endArrow=classic;html=1;rounded=0;entryX=0.5;entryY=1;entryDx=0;entryDy=0;startArrow=classic;startFill=1;" edge="1" parent="1" target="mtID3ck88sSmsp8Z3kax-4">
          <mxGeometry width="50" height="50" relative="1" as="geometry">
            <mxPoint x="740" y="200" as="sourcePoint" />
            <mxPoint x="739.62" y="171" as="targetPoint" />
          </mxGeometry>
        </mxCell>
        <mxCell id="mtID3ck88sSmsp8Z3kax-23" style="edgeStyle=orthogonalEdgeStyle;rounded=0;orthogonalLoop=1;jettySize=auto;html=1;entryX=0.778;entryY=0.969;entryDx=0;entryDy=0;entryPerimeter=0;" edge="1" parent="1" source="mtID3ck88sSmsp8Z3kax-7" target="mtID3ck88sSmsp8Z3kax-8">
          <mxGeometry relative="1" as="geometry" />
        </mxCell>
        <mxCell id="mtID3ck88sSmsp8Z3kax-42" style="edgeStyle=orthogonalEdgeStyle;rounded=0;orthogonalLoop=1;jettySize=auto;html=1;entryX=1;entryY=0.5;entryDx=0;entryDy=0;startArrow=classic;startFill=1;" edge="1" parent="1" source="mtID3ck88sSmsp8Z3kax-26" target="mtID3ck88sSmsp8Z3kax-8">
          <mxGeometry relative="1" as="geometry">
            <Array as="points">
              <mxPoint x="820" y="40" />
              <mxPoint x="820" y="-170" />
            </Array>
          </mxGeometry>
        </mxCell>
        <mxCell id="mtID3ck88sSmsp8Z3kax-26" value="op-geth (full/archive mode)" style="rounded=0;whiteSpace=wrap;html=1;fillColor=#fff2cc;strokeColor=#d6b656;" vertex="1" parent="1">
          <mxGeometry x="480" y="10" width="320" height="60" as="geometry" />
        </mxCell>
        <mxCell id="mtID3ck88sSmsp8Z3kax-28" value="" style="endArrow=classic;startArrow=classic;html=1;rounded=0;entryX=0.25;entryY=1;entryDx=0;entryDy=0;" edge="1" parent="1" target="mtID3ck88sSmsp8Z3kax-26">
          <mxGeometry width="50" height="50" relative="1" as="geometry">
            <mxPoint x="540" y="100" as="sourcePoint" />
            <mxPoint x="590" y="50" as="targetPoint" />
          </mxGeometry>
        </mxCell>
        <mxCell id="mtID3ck88sSmsp8Z3kax-29" value="" style="endArrow=classic;startArrow=classic;html=1;rounded=0;entryX=0.75;entryY=1;entryDx=0;entryDy=0;" edge="1" parent="1" target="mtID3ck88sSmsp8Z3kax-26">
          <mxGeometry width="50" height="50" relative="1" as="geometry">
            <mxPoint x="740" y="100" as="sourcePoint" />
            <mxPoint x="760" y="70" as="targetPoint" />
          </mxGeometry>
        </mxCell>
        <mxCell id="mtID3ck88sSmsp8Z3kax-32" value="eth_call" style="text;html=1;align=center;verticalAlign=middle;whiteSpace=wrap;rounded=0;" vertex="1" parent="1">
          <mxGeometry x="740" y="160" width="60" height="30" as="geometry" />
        </mxCell>
        <mxCell id="mtID3ck88sSmsp8Z3kax-33" value="eth_getBalance" style="text;html=1;align=center;verticalAlign=middle;whiteSpace=wrap;rounded=0;" vertex="1" parent="1">
          <mxGeometry x="540" y="160" width="100" height="30" as="geometry" />
        </mxCell>
        <mxCell id="mtID3ck88sSmsp8Z3kax-34" value="eth_sendRawTransaction" style="text;html=1;align=center;verticalAlign=middle;whiteSpace=wrap;rounded=0;" vertex="1" parent="1">
          <mxGeometry x="340" y="160" width="150" height="30" as="geometry" />
        </mxCell>
        <mxCell id="mtID3ck88sSmsp8Z3kax-35" value="Actor" style="shape=umlActor;verticalLabelPosition=bottom;verticalAlign=top;html=1;outlineConnect=0;" vertex="1" parent="1">
          <mxGeometry x="325" y="300" width="30" height="60" as="geometry" />
        </mxCell>
        <mxCell id="mtID3ck88sSmsp8Z3kax-40" style="edgeStyle=orthogonalEdgeStyle;rounded=0;orthogonalLoop=1;jettySize=auto;html=1;" edge="1" parent="1" source="mtID3ck88sSmsp8Z3kax-36" target="mtID3ck88sSmsp8Z3kax-1">
          <mxGeometry relative="1" as="geometry" />
        </mxCell>
        <mxCell id="mtID3ck88sSmsp8Z3kax-36" value="Actor" style="shape=umlActor;verticalLabelPosition=bottom;verticalAlign=top;html=1;outlineConnect=0;" vertex="1" parent="1">
          <mxGeometry x="525" y="300" width="30" height="60" as="geometry" />
        </mxCell>
        <mxCell id="mtID3ck88sSmsp8Z3kax-37" value="Actor" style="shape=umlActor;verticalLabelPosition=bottom;verticalAlign=top;html=1;outlineConnect=0;" vertex="1" parent="1">
          <mxGeometry x="725" y="300" width="30" height="60" as="geometry" />
        </mxCell>
        <mxCell id="mtID3ck88sSmsp8Z3kax-39" style="edgeStyle=orthogonalEdgeStyle;rounded=0;orthogonalLoop=1;jettySize=auto;html=1;entryX=0.885;entryY=1.017;entryDx=0;entryDy=0;entryPerimeter=0;" edge="1" parent="1" source="mtID3ck88sSmsp8Z3kax-37" target="mtID3ck88sSmsp8Z3kax-1">
          <mxGeometry relative="1" as="geometry" />
        </mxCell>
        <mxCell id="mtID3ck88sSmsp8Z3kax-41" style="edgeStyle=orthogonalEdgeStyle;rounded=0;orthogonalLoop=1;jettySize=auto;html=1;entryX=0.116;entryY=0.992;entryDx=0;entryDy=0;entryPerimeter=0;" edge="1" parent="1" source="mtID3ck88sSmsp8Z3kax-35" target="mtID3ck88sSmsp8Z3kax-1">
          <mxGeometry relative="1" as="geometry" />
        </mxCell>
      </root>
    </mxGraphModel>
  </diagram>
</mxfile>
